<mxfile host="app.diagrams.net" modified="2022-09-29T01:59:16.098Z" agent="5.0 (Windows NT 10.0; Win64; x64) AppleWebKit/537.36 (KHTML, like Gecko) Chrome/105.0.0.0 Safari/537.36" etag="iLYkU3yTWdNsmhj1k33R" version="16.6.1" type="github">
  <diagram id="ZDUylox_XW8V9LE1R7Mk" name="Page-1">
    <mxGraphModel dx="1038" dy="539" grid="1" gridSize="10" guides="1" tooltips="1" connect="1" arrows="1" fold="1" page="1" pageScale="1" pageWidth="827" pageHeight="1169" math="0" shadow="0">
      <root>
        <mxCell id="0" />
        <mxCell id="1" parent="0" />
        <mxCell id="xJZe4YS6w3BnA7pcNaL8-1" value="class biodata" style="swimlane;fontStyle=1;align=center;verticalAlign=top;childLayout=stackLayout;horizontal=1;startSize=26;horizontalStack=0;resizeParent=1;resizeParentMax=0;resizeLast=0;collapsible=1;marginBottom=0;" vertex="1" parent="1">
          <mxGeometry x="200" y="80" width="160" height="158" as="geometry" />
        </mxCell>
        <mxCell id="xJZe4YS6w3BnA7pcNaL8-2" value="nim : String&#xa;nama : String" style="text;strokeColor=none;fillColor=none;align=left;verticalAlign=top;spacingLeft=4;spacingRight=4;overflow=hidden;rotatable=0;points=[[0,0.5],[1,0.5]];portConstraint=eastwest;" vertex="1" parent="xJZe4YS6w3BnA7pcNaL8-1">
          <mxGeometry y="26" width="160" height="34" as="geometry" />
        </mxCell>
        <mxCell id="xJZe4YS6w3BnA7pcNaL8-3" value="" style="line;strokeWidth=1;fillColor=none;align=left;verticalAlign=middle;spacingTop=-1;spacingLeft=3;spacingRight=3;rotatable=0;labelPosition=right;points=[];portConstraint=eastwest;" vertex="1" parent="xJZe4YS6w3BnA7pcNaL8-1">
          <mxGeometry y="60" width="160" height="8" as="geometry" />
        </mxCell>
        <mxCell id="xJZe4YS6w3BnA7pcNaL8-4" value="inputData() : void&#xa;viewData() : void" style="text;strokeColor=none;fillColor=none;align=left;verticalAlign=top;spacingLeft=4;spacingRight=4;overflow=hidden;rotatable=0;points=[[0,0.5],[1,0.5]];portConstraint=eastwest;" vertex="1" parent="xJZe4YS6w3BnA7pcNaL8-1">
          <mxGeometry y="68" width="160" height="90" as="geometry" />
        </mxCell>
        <mxCell id="xJZe4YS6w3BnA7pcNaL8-5" value="class biodata" style="swimlane;fontStyle=1;align=center;verticalAlign=top;childLayout=stackLayout;horizontal=1;startSize=26;horizontalStack=0;resizeParent=1;resizeParentMax=0;resizeLast=0;collapsible=1;marginBottom=0;" vertex="1" parent="1">
          <mxGeometry x="420" y="80" width="160" height="158" as="geometry" />
        </mxCell>
        <mxCell id="xJZe4YS6w3BnA7pcNaL8-6" value="nim : String&#xa;nama : String" style="text;strokeColor=none;fillColor=none;align=left;verticalAlign=top;spacingLeft=4;spacingRight=4;overflow=hidden;rotatable=0;points=[[0,0.5],[1,0.5]];portConstraint=eastwest;" vertex="1" parent="xJZe4YS6w3BnA7pcNaL8-5">
          <mxGeometry y="26" width="160" height="34" as="geometry" />
        </mxCell>
        <mxCell id="xJZe4YS6w3BnA7pcNaL8-7" value="" style="line;strokeWidth=1;fillColor=none;align=left;verticalAlign=middle;spacingTop=-1;spacingLeft=3;spacingRight=3;rotatable=0;labelPosition=right;points=[];portConstraint=eastwest;" vertex="1" parent="xJZe4YS6w3BnA7pcNaL8-5">
          <mxGeometry y="60" width="160" height="8" as="geometry" />
        </mxCell>
        <mxCell id="xJZe4YS6w3BnA7pcNaL8-8" value="setNim() : string&#xa;setNama() : string&#xa;getNim() : String&#xa;getNama() : String" style="text;strokeColor=none;fillColor=none;align=left;verticalAlign=top;spacingLeft=4;spacingRight=4;overflow=hidden;rotatable=0;points=[[0,0.5],[1,0.5]];portConstraint=eastwest;" vertex="1" parent="xJZe4YS6w3BnA7pcNaL8-5">
          <mxGeometry y="68" width="160" height="90" as="geometry" />
        </mxCell>
        <mxCell id="xJZe4YS6w3BnA7pcNaL8-9" value="Actor" style="shape=umlActor;verticalLabelPosition=bottom;verticalAlign=top;html=1;" vertex="1" parent="1">
          <mxGeometry x="120" y="360" width="30" height="60" as="geometry" />
        </mxCell>
        <mxCell id="xJZe4YS6w3BnA7pcNaL8-10" value="" style="endArrow=none;html=1;rounded=0;" edge="1" parent="1">
          <mxGeometry width="50" height="50" relative="1" as="geometry">
            <mxPoint x="180" y="400" as="sourcePoint" />
            <mxPoint x="280" y="300" as="targetPoint" />
          </mxGeometry>
        </mxCell>
        <mxCell id="xJZe4YS6w3BnA7pcNaL8-11" value="menginput&amp;nbsp; Data" style="rounded=0;whiteSpace=wrap;html=1;" vertex="1" parent="1">
          <mxGeometry x="280" y="280" width="120" height="60" as="geometry" />
        </mxCell>
        <mxCell id="xJZe4YS6w3BnA7pcNaL8-12" value="" style="endArrow=none;html=1;rounded=0;" edge="1" parent="1">
          <mxGeometry width="50" height="50" relative="1" as="geometry">
            <mxPoint x="180" y="400" as="sourcePoint" />
            <mxPoint x="280" y="480" as="targetPoint" />
          </mxGeometry>
        </mxCell>
        <mxCell id="xJZe4YS6w3BnA7pcNaL8-13" value="menampilkan Data" style="rounded=0;whiteSpace=wrap;html=1;" vertex="1" parent="1">
          <mxGeometry x="280" y="450" width="120" height="60" as="geometry" />
        </mxCell>
      </root>
    </mxGraphModel>
  </diagram>
</mxfile>
